<mxfile host="65bd71144e">
    <diagram id="4-Q61KIzEW-wi6zkNQf9" name="Page-1">
        <mxGraphModel dx="1736" dy="916" grid="1" gridSize="10" guides="1" tooltips="1" connect="1" arrows="1" fold="1" page="1" pageScale="1" pageWidth="850" pageHeight="1100" math="0" shadow="0">
            <root>
                <mxCell id="0"/>
                <mxCell id="1" parent="0"/>
                <mxCell id="37" style="edgeStyle=none;html=1;exitX=0.5;exitY=1;exitDx=0;exitDy=0;entryX=0.5;entryY=0;entryDx=0;entryDy=0;endArrow=none;endFill=0;" edge="1" parent="1" source="24" target="35">
                    <mxGeometry relative="1" as="geometry"/>
                </mxCell>
                <mxCell id="41" style="edgeStyle=orthogonalEdgeStyle;html=1;exitX=1;exitY=0.75;exitDx=0;exitDy=0;entryX=0.5;entryY=0;entryDx=0;entryDy=0;endArrow=none;endFill=0;" edge="1" parent="1" source="24" target="38">
                    <mxGeometry relative="1" as="geometry"/>
                </mxCell>
                <mxCell id="52" style="edgeStyle=orthogonalEdgeStyle;html=1;exitX=0.5;exitY=0;exitDx=0;exitDy=0;entryX=0.5;entryY=1;entryDx=0;entryDy=0;endArrow=none;endFill=0;" edge="1" parent="1" source="24" target="50">
                    <mxGeometry relative="1" as="geometry"/>
                </mxCell>
                <mxCell id="87" style="edgeStyle=orthogonalEdgeStyle;html=1;exitX=1;exitY=0.5;exitDx=0;exitDy=0;entryX=0;entryY=0.5;entryDx=0;entryDy=0;endArrow=none;endFill=0;" edge="1" parent="1" source="24" target="47">
                    <mxGeometry relative="1" as="geometry"/>
                </mxCell>
                <mxCell id="88" style="edgeStyle=orthogonalEdgeStyle;html=1;entryX=0.5;entryY=1;entryDx=0;entryDy=0;exitX=0.75;exitY=0;exitDx=0;exitDy=0;endArrow=none;endFill=0;" edge="1" parent="1" source="24" target="43">
                    <mxGeometry relative="1" as="geometry">
                        <mxPoint x="220" y="390" as="sourcePoint"/>
                        <Array as="points">
                            <mxPoint x="218" y="350"/>
                            <mxPoint x="450" y="350"/>
                        </Array>
                    </mxGeometry>
                </mxCell>
                <mxCell id="24" value="&amp;lt;&amp;lt;clientNode&amp;gt;&amp;gt;&lt;br&gt;&lt;b&gt;Smartphone&lt;/b&gt;&lt;br&gt;{os = Android 8.0,&amp;nbsp;iOS 16.0}" style="swimlane;fontStyle=0;align=center;verticalAlign=top;childLayout=stackLayout;horizontal=1;startSize=55;horizontalStack=0;resizeParent=1;resizeParentMax=0;resizeLast=0;collapsible=0;marginBottom=0;html=1;" vertex="1" parent="1">
                    <mxGeometry x="60" y="463" width="210" height="120" as="geometry"/>
                </mxCell>
                <mxCell id="34" value="&amp;lt;&amp;lt;artifact&amp;gt;&amp;gt;&lt;br&gt;&lt;br&gt;&lt;b&gt;Moon Climbing Mobile App&lt;/b&gt;" style="html=1;align=center;verticalAlign=middle;dashed=0;" vertex="1" parent="24">
                    <mxGeometry y="55" width="210" height="65" as="geometry"/>
                </mxCell>
                <mxCell id="91" style="edgeStyle=orthogonalEdgeStyle;html=1;exitX=1;exitY=0.25;exitDx=0;exitDy=0;entryX=0;entryY=0.25;entryDx=0;entryDy=0;endArrow=none;endFill=0;" edge="1" parent="1" source="35" target="38">
                    <mxGeometry relative="1" as="geometry"/>
                </mxCell>
                <mxCell id="35" value="&amp;lt;&amp;lt;processingNode&amp;gt;&amp;gt;&lt;br&gt;&lt;b&gt;Problems FaaS environment&lt;/b&gt;&lt;br&gt;{os = }" style="swimlane;fontStyle=0;align=center;verticalAlign=top;childLayout=stackLayout;horizontal=1;startSize=55;horizontalStack=0;resizeParent=1;resizeParentMax=0;resizeLast=0;collapsible=0;marginBottom=0;html=1;" vertex="1" parent="1">
                    <mxGeometry x="60" y="630" width="210" height="125" as="geometry"/>
                </mxCell>
                <mxCell id="36" value="&amp;lt;&amp;lt;artifact&amp;gt;&amp;gt;&lt;br&gt;&lt;br&gt;&lt;b&gt;Problem insertion and retrieval&lt;/b&gt;" style="html=1;align=center;verticalAlign=middle;dashed=0;" vertex="1" parent="35">
                    <mxGeometry y="55" width="210" height="70" as="geometry"/>
                </mxCell>
                <mxCell id="82" style="edgeStyle=none;html=1;exitX=1;exitY=0.75;exitDx=0;exitDy=0;entryX=0;entryY=0.5;entryDx=0;entryDy=0;endArrow=none;endFill=0;" edge="1" parent="1" source="38" target="79">
                    <mxGeometry relative="1" as="geometry"/>
                </mxCell>
                <mxCell id="38" value="&amp;lt;&amp;lt;processingNode&amp;gt;&amp;gt;&lt;br&gt;&lt;b&gt;Statistics FaaS environment&lt;/b&gt;&lt;br&gt;{os = }" style="swimlane;fontStyle=0;align=center;verticalAlign=top;childLayout=stackLayout;horizontal=1;startSize=55;horizontalStack=0;resizeParent=1;resizeParentMax=0;resizeLast=0;collapsible=0;marginBottom=0;html=1;" vertex="1" parent="1">
                    <mxGeometry x="390" y="590" width="200" height="115" as="geometry"/>
                </mxCell>
                <mxCell id="39" value="&amp;lt;&amp;lt;artifact&amp;gt;&amp;gt;&lt;br&gt;&lt;br&gt;&lt;b&gt;Climbers Rankings calculator&lt;/b&gt;" style="html=1;align=center;verticalAlign=middle;dashed=0;" vertex="1" parent="38">
                    <mxGeometry y="55" width="200" height="60" as="geometry"/>
                </mxCell>
                <mxCell id="89" style="edgeStyle=orthogonalEdgeStyle;html=1;exitX=0.5;exitY=1;exitDx=0;exitDy=0;entryX=0.5;entryY=0;entryDx=0;entryDy=0;endArrow=none;endFill=0;" edge="1" parent="1" source="40" target="66">
                    <mxGeometry relative="1" as="geometry"/>
                </mxCell>
                <mxCell id="40" value="&amp;lt;&amp;lt;artifact&amp;gt;&amp;gt;&lt;br&gt;&lt;br&gt;&lt;b&gt;Gyms Rankings calculator&lt;/b&gt;" style="html=1;align=center;verticalAlign=middle;dashed=0;" vertex="1" parent="1">
                    <mxGeometry x="390" y="705" width="200" height="60" as="geometry"/>
                </mxCell>
                <mxCell id="72" style="edgeStyle=orthogonalEdgeStyle;html=1;exitX=1;exitY=0.5;exitDx=0;exitDy=0;entryX=0;entryY=0.5;entryDx=0;entryDy=0;endArrow=none;endFill=0;" edge="1" parent="1" source="43" target="69">
                    <mxGeometry relative="1" as="geometry"/>
                </mxCell>
                <mxCell id="43" value="&amp;lt;&amp;lt;processingNode&amp;gt;&amp;gt;&lt;br&gt;&lt;b&gt;User authentication &lt;br&gt;FaaS environment&lt;/b&gt;&lt;br&gt;{os = }" style="swimlane;fontStyle=0;align=center;verticalAlign=top;childLayout=stackLayout;horizontal=1;startSize=70;horizontalStack=0;resizeParent=1;resizeParentMax=0;resizeLast=0;collapsible=0;marginBottom=0;html=1;" vertex="1" parent="1">
                    <mxGeometry x="350" y="200" width="200" height="130" as="geometry"/>
                </mxCell>
                <mxCell id="44" value="&amp;lt;&amp;lt;artifact&amp;gt;&amp;gt;&lt;br&gt;&lt;br&gt;&lt;b&gt;User authentication&lt;br&gt;&lt;/b&gt;" style="html=1;align=center;verticalAlign=middle;dashed=0;" vertex="1" parent="43">
                    <mxGeometry y="70" width="200" height="60" as="geometry"/>
                </mxCell>
                <mxCell id="96" style="edgeStyle=orthogonalEdgeStyle;html=1;exitX=1;exitY=0.25;exitDx=0;exitDy=0;entryX=0;entryY=0.25;entryDx=0;entryDy=0;endArrow=none;endFill=0;" edge="1" parent="1" source="46" target="73">
                    <mxGeometry relative="1" as="geometry"/>
                </mxCell>
                <mxCell id="46" value="&amp;lt;&amp;lt;processingNode&amp;gt;&amp;gt;&lt;br&gt;&lt;b&gt;User interactions&lt;/b&gt;&lt;br&gt;{os = }" style="swimlane;fontStyle=0;align=center;verticalAlign=top;childLayout=stackLayout;horizontal=1;startSize=70;horizontalStack=0;resizeParent=1;resizeParentMax=0;resizeLast=0;collapsible=0;marginBottom=0;html=1;" vertex="1" parent="1">
                    <mxGeometry x="480" y="360" width="200" height="170" as="geometry"/>
                </mxCell>
                <mxCell id="47" value="&amp;lt;&amp;lt;artifact&amp;gt;&amp;gt;&lt;br&gt;&lt;b&gt;Instagram content retrieval&lt;br&gt;&lt;/b&gt;" style="html=1;align=center;verticalAlign=middle;dashed=0;" vertex="1" parent="46">
                    <mxGeometry y="70" width="200" height="50" as="geometry"/>
                </mxCell>
                <mxCell id="48" value="&amp;lt;&amp;lt;artifact&amp;gt;&amp;gt;&lt;br&gt;&lt;b&gt;Contacts application&lt;br&gt;&lt;/b&gt;" style="html=1;align=center;verticalAlign=middle;dashed=0;fillColor=rgb(255, 255, 255);" vertex="1" parent="46">
                    <mxGeometry y="120" width="200" height="50" as="geometry"/>
                </mxCell>
                <mxCell id="50" value="&amp;lt;&amp;lt;processingNode&amp;gt;&amp;gt;&lt;br&gt;&lt;b&gt;Board&lt;/b&gt;&lt;br&gt;{os = }" style="swimlane;fontStyle=0;align=center;verticalAlign=top;childLayout=stackLayout;horizontal=1;startSize=70;horizontalStack=0;resizeParent=1;resizeParentMax=0;resizeLast=0;collapsible=0;marginBottom=0;html=1;" vertex="1" parent="1">
                    <mxGeometry x="60" y="200" width="210" height="130" as="geometry"/>
                </mxCell>
                <mxCell id="51" value="&amp;lt;&amp;lt;artifact&amp;gt;&amp;gt;&lt;br&gt;&lt;br&gt;&lt;b&gt;LED lighter&lt;br&gt;&lt;/b&gt;" style="html=1;align=center;verticalAlign=middle;dashed=0;" vertex="1" parent="50">
                    <mxGeometry y="70" width="210" height="60" as="geometry"/>
                </mxCell>
                <mxCell id="60" value="&amp;lt;&amp;lt;processingNode&amp;gt;&amp;gt;&lt;br&gt;&lt;b&gt;Problems and Logbooks DB server&lt;/b&gt;&lt;br&gt;{os = }" style="swimlane;fontStyle=0;align=center;verticalAlign=top;childLayout=stackLayout;horizontal=1;startSize=55;horizontalStack=0;resizeParent=1;resizeParentMax=0;resizeLast=0;collapsible=0;marginBottom=0;html=1;" vertex="1" parent="1">
                    <mxGeometry x="60" y="800" width="210" height="120" as="geometry"/>
                </mxCell>
                <mxCell id="61" value="&amp;lt;&amp;lt;artifact&amp;gt;&amp;gt;&lt;br&gt;&lt;br&gt;&lt;b&gt;Logbooks DB schema&amp;nbsp;&lt;/b&gt;" style="html=1;align=center;verticalAlign=middle;dashed=0;" vertex="1" parent="60">
                    <mxGeometry y="55" width="210" height="65" as="geometry"/>
                </mxCell>
                <mxCell id="62" style="edgeStyle=none;html=1;exitX=0.5;exitY=1;exitDx=0;exitDy=0;entryX=0.5;entryY=0;entryDx=0;entryDy=0;endArrow=none;endFill=0;" edge="1" parent="1" source="36" target="60">
                    <mxGeometry relative="1" as="geometry"/>
                </mxCell>
                <mxCell id="63" value="&amp;lt;&amp;lt;artifact&amp;gt;&amp;gt;&lt;br&gt;&lt;br&gt;&lt;b&gt;Problems DB schema&amp;nbsp;&lt;/b&gt;" style="html=1;align=center;verticalAlign=middle;dashed=0;" vertex="1" parent="1">
                    <mxGeometry x="60" y="915" width="210" height="60" as="geometry"/>
                </mxCell>
                <mxCell id="66" value="&amp;lt;&amp;lt;processingNode&amp;gt;&amp;gt;&lt;br&gt;&lt;b&gt;Statistics DB server&amp;nbsp;&lt;br&gt;&lt;/b&gt;{os = }" style="swimlane;fontStyle=0;align=center;verticalAlign=top;childLayout=stackLayout;horizontal=1;startSize=55;horizontalStack=0;resizeParent=1;resizeParentMax=0;resizeLast=0;collapsible=0;marginBottom=0;html=1;" vertex="1" parent="1">
                    <mxGeometry x="390" y="860" width="200" height="115" as="geometry"/>
                </mxCell>
                <mxCell id="67" value="&amp;lt;&amp;lt;artifact&amp;gt;&amp;gt;&lt;br&gt;&lt;br&gt;&lt;b&gt;Statistics DB schema&amp;nbsp;&lt;/b&gt;" style="html=1;align=center;verticalAlign=middle;dashed=0;" vertex="1" parent="66">
                    <mxGeometry y="55" width="200" height="60" as="geometry"/>
                </mxCell>
                <mxCell id="69" value="&amp;lt;&amp;lt;processingNode&amp;gt;&amp;gt;&lt;br&gt;&lt;b&gt;User data DB server&lt;/b&gt;&lt;br&gt;{os = }" style="swimlane;fontStyle=0;align=center;verticalAlign=top;childLayout=stackLayout;horizontal=1;startSize=70;horizontalStack=0;resizeParent=1;resizeParentMax=0;resizeLast=0;collapsible=0;marginBottom=0;html=1;" vertex="1" parent="1">
                    <mxGeometry x="725" y="200" width="200" height="130" as="geometry"/>
                </mxCell>
                <mxCell id="70" value="&amp;lt;&amp;lt;artifact&amp;gt;&amp;gt;&lt;br&gt;&lt;br&gt;&lt;b&gt;Users DB schema&amp;nbsp;&lt;/b&gt;" style="html=1;align=center;verticalAlign=middle;dashed=0;" vertex="1" parent="69">
                    <mxGeometry y="70" width="200" height="60" as="geometry"/>
                </mxCell>
                <mxCell id="73" value="&amp;lt;&amp;lt;processingNode&amp;gt;&amp;gt;&lt;br&gt;&lt;b&gt;Profiles Data DB server&lt;/b&gt;&lt;br&gt;{os = }" style="swimlane;fontStyle=0;align=center;verticalAlign=top;childLayout=stackLayout;horizontal=1;startSize=55;horizontalStack=0;resizeParent=1;resizeParentMax=0;resizeLast=0;collapsible=0;marginBottom=0;html=1;" vertex="1" parent="1">
                    <mxGeometry x="730" y="387.5" width="200" height="115" as="geometry"/>
                </mxCell>
                <mxCell id="74" value="&amp;lt;&amp;lt;artifact&amp;gt;&amp;gt;&lt;br&gt;&lt;br&gt;&lt;b&gt;Contacts DB schema&amp;nbsp;&lt;/b&gt;" style="html=1;align=center;verticalAlign=middle;dashed=0;" vertex="1" parent="73">
                    <mxGeometry y="55" width="200" height="60" as="geometry"/>
                </mxCell>
                <mxCell id="94" style="edgeStyle=orthogonalEdgeStyle;html=1;exitX=0.5;exitY=0;exitDx=0;exitDy=0;endArrow=none;endFill=0;" edge="1" parent="1" source="79">
                    <mxGeometry relative="1" as="geometry">
                        <mxPoint x="850" y="500" as="targetPoint"/>
                    </mxGeometry>
                </mxCell>
                <mxCell id="79" value="&amp;lt;&amp;lt;processingNode&amp;gt;&amp;gt;&lt;br&gt;&lt;b&gt;Profile update FaaS environment&lt;/b&gt;&lt;br&gt;{os = }" style="swimlane;fontStyle=0;align=center;verticalAlign=top;childLayout=stackLayout;horizontal=1;startSize=55;horizontalStack=0;resizeParent=1;resizeParentMax=0;resizeLast=0;collapsible=0;marginBottom=0;html=1;" vertex="1" parent="1">
                    <mxGeometry x="730" y="620" width="200" height="115" as="geometry"/>
                </mxCell>
                <mxCell id="80" value="&amp;lt;&amp;lt;artifact&amp;gt;&amp;gt;&lt;br&gt;&lt;br&gt;&lt;b&gt;Event-driven profiles update&lt;/b&gt;" style="html=1;align=center;verticalAlign=middle;dashed=0;" vertex="1" parent="79">
                    <mxGeometry y="55" width="200" height="60" as="geometry"/>
                </mxCell>
                <mxCell id="93" style="edgeStyle=orthogonalEdgeStyle;html=1;exitX=0.5;exitY=0;exitDx=0;exitDy=0;entryX=0.564;entryY=1.003;entryDx=0;entryDy=0;entryPerimeter=0;endArrow=none;endFill=0;" edge="1" parent="1" source="84" target="40">
                    <mxGeometry relative="1" as="geometry">
                        <mxPoint x="640" y="790" as="targetPoint"/>
                    </mxGeometry>
                </mxCell>
                <mxCell id="84" value="&amp;lt;&amp;lt;clientNode&amp;gt;&amp;gt;&lt;br&gt;&lt;b&gt;Gyms laptop&lt;/b&gt;&lt;br&gt;{os = Android 8.0,&amp;nbsp;iOS 16.0}" style="swimlane;fontStyle=0;align=center;verticalAlign=top;childLayout=stackLayout;horizontal=1;startSize=55;horizontalStack=0;resizeParent=1;resizeParentMax=0;resizeLast=0;collapsible=0;marginBottom=0;html=1;" vertex="1" parent="1">
                    <mxGeometry x="720" y="860" width="210" height="115" as="geometry"/>
                </mxCell>
                <mxCell id="85" value="&amp;lt;&amp;lt;artifact&amp;gt;&amp;gt;&lt;br&gt;&lt;br&gt;&lt;b&gt;Moon Climbing Gyms Interface&lt;/b&gt;" style="html=1;align=center;verticalAlign=middle;dashed=0;" vertex="1" parent="84">
                    <mxGeometry y="55" width="210" height="60" as="geometry"/>
                </mxCell>
            </root>
        </mxGraphModel>
    </diagram>
</mxfile>